<svg id="Layer_1" data-name="Layer 1" xmlns="http://www.w3.org/2000/svg" viewBox="0 0 1136.32 1183.54"><defs><style>.cls-1{fill:#fdfdfc;}.cls-2{fill:#fbd61b;}.cls-3{fill:#fabe10;}.cls-4{fill:#fccd0a;}.cls-5{fill:#fdcb03;}.cls-6{fill:#fdc81e;}.cls-7{fill:#fdd743;}.cls-8{fill:#fcd434;}</style></defs><title>Capture4200</title><path class="cls-1" d="M31.51,619.56c0-183.8,1.1-367.61-1-551.38-.38-33.66,6.29-40.64,40.3-40.49q527.75,2.44,1055.5,0c33.62-.15,40.63,6.25,40.48,40.27q-2.38,551.37,0,1102.76c.14,33.61-6.25,40.64-40.27,40.48q-527.75-2.43-1055.5,0c-33.62.15-40.92-6.21-40.51-40.27C32.65,987.16,31.51,803.35,31.51,619.56Zm530.55,464.65c270.29,1.92,492.27-217.22,493.46-487.16,1.17-265.52-217.77-487.29-483.3-489.54C302.85,105.22,79.15,326,78.55,594.81,78,860.82,296.8,1082.33,562.06,1084.21Z" transform="translate(-30.46 -27.69)"/><path class="cls-2" d="M562.06,1084.21C296.8,1082.33,78,860.82,78.55,594.81c.6-268.77,224.3-489.59,493.67-487.3,265.53,2.25,484.47,224,483.3,489.54C1054.33,867,832.35,1086.13,562.06,1084.21ZM835,280.56c-100-100-217.47-128.52-355.17-96.24-247.16,57.94-368.16,249.24-336.28,475,11.06,78.37,29.11,159.08,108,204.46.48,19.83,10.42,34.79,24.89,47.1,156,132.7,360.75,143.31,502.84,57C959.37,858.57,1040,644.81,973.16,460.8c-16-44.09-28.16-103.67-90.77-117.2C883.87,309.62,875.33,283.17,835,280.56Z" transform="translate(-30.46 -27.69)"/><path class="cls-3" d="M882.39,343.6c62.61,13.53,74.76,73.11,90.77,117.2,66.87,184-13.79,397.77-193.85,507.11-142.09,86.28-346.88,75.67-502.84-57-14.47-12.31-24.41-27.27-24.89-47.1l32-.26c28.51.79,56.4,4.13,84.84,8.81,122.65,20.21,235.36,6,333-85.76C817.54,677.43,871.92,549.76,850.59,391.1c58.36,16.18,21.11-31.52,31.61-47.32Z" transform="translate(-30.46 -27.69)"/><path class="cls-4" d="M283.57,863.52l-32,.26c-78.88-45.38-96.93-126.09-108-204.46-31.88-225.76,89.12-417.06,336.28-475C617.57,152,735.06,180.52,835,280.56l-.11.34c-15.93,10.2-32,9-48.14.54-126.87-85.66-347.27-89-471.23,30.31-95.49,91.91-137.12,200.52-125.93,331.12-4.87,49.56,14,90.38,46.5,126.18C299.36,776.73,279.7,826,283.57,863.52Z" transform="translate(-30.46 -27.69)"/><path class="cls-3" d="M835,280.56c40.29,2.61,48.83,29.06,47.35,63l-.19.18c-28.43-11.43-34.11-40-47.27-62.88Z" transform="translate(-30.46 -27.69)"/><path class="cls-5" d="M283.57,863.52c-3.87-37.49,15.79-86.79-47.44-94.47q-8.25-63.13-16.51-126.26c-8.56-66.3,25.24-120.74,51.67-176.37C335.59,331,517,229.33,667.72,280.53c39.17,13.31,80,21.8,120,32.51,4.15,39.54,34.13,58.29,62.84,78.06,21.33,158.66-33.05,286.33-149.21,395.47-97.61,91.72-210.32,106-333,85.76C340,867.65,312.08,864.31,283.57,863.52Z" transform="translate(-30.46 -27.69)"/><path class="cls-6" d="M850.59,391.1c-28.71-19.77-58.69-38.52-62.84-78.07l-1-31.59c16.15,8.49,32.21,9.66,48.14-.54,13.16,22.91,18.84,51.45,47.27,62.88C871.7,359.58,909,407.28,850.59,391.1Z" transform="translate(-30.46 -27.69)"/><path class="cls-7" d="M786.79,281.44l1,31.59c-40-10.7-80.86-19.19-120-32.5C517,229.33,335.59,331,271.29,466.42c-26.43,55.63-60.23,110.07-51.66,176.37l-30,.08c-11.19-130.6,30.44-239.21,125.93-331.12C439.52,192.43,659.92,195.78,786.79,281.44Z" transform="translate(-30.46 -27.69)"/><path class="cls-8" d="M189.63,642.87l30-.08q8.24,63.12,16.5,126.26C203.62,733.25,184.76,692.43,189.63,642.87Z" transform="translate(-30.46 -27.69)"/></svg>