<svg id="Layer_1" data-name="Layer 1" xmlns="http://www.w3.org/2000/svg" viewBox="0 0 836.24 836.06"><defs><style>.cls-1{fill:#fdfcfc;}.cls-2{fill:#f51c20;}.cls-3{fill:#b00d26;}.cls-4{fill:#db172a;}.cls-5{fill:#d7132b;}.cls-6{fill:#f7495c;}</style></defs><title>Capture420</title><path class="cls-1" d="M556.72,177.7c-228.48.14-417.24,187.65-417.82,415-.59,232.28,187.14,421.21,418.39,421S976,824.36,975.13,592.1C974.24,364.78,785.21,177.57,556.72,177.7Z" transform="translate(-138.9 -177.7)"/><path class="cls-2" d="M556.72,177.7c228.49-.13,417.52,187.08,418.41,414.4.91,232.26-186.6,421.48-417.84,421.66s-419-188.75-418.39-421C139.48,365.35,328.24,177.84,556.72,177.7ZM772.78,311.57c-93.79-83.53-205.52-79.79-316-55.9-208.38,45-346.73,328.6-195.85,542.51,3.37,28.62,21.48,48.94,41.28,66.58,150,133.68,397.27,122.73,522.71-17.41C985.66,667.73,929.77,405.31,772.78,311.57Z" transform="translate(-138.9 -177.7)"/><path class="cls-3" d="M772.78,311.54c157,93.77,212.88,356.19,52.1,535.81C699.44,987.49,452.21,998.44,302.17,864.76c-19.8-17.64-37.91-38-41.29-66.58,13.39-8.76,26.54-7.49,39.51,1,77.68,60.78,158.08,61.83,250,27.76C676.3,780.24,757.83,696.44,790.16,569.83c15.81-61.9,32.74-131.09-17.92-190C781.75,357.14,749.12,334.12,772.78,311.54Z" transform="translate(-138.9 -177.7)"/><path class="cls-4" d="M300.39,799.13c-13-8.44-26.12-9.71-39.51-1C110,584.27,248.36,300.71,456.74,255.67,567.26,231.78,679,228,772.78,311.56c-23.66,22.56,9,45.58-.53,68.26-29.94,2.54-35.35-27.38-53.52-40.43-38.15-46.53-93.13-61.66-147.5-65.34C349,259,171.25,500.12,247.71,708.48c6.54,17.83,13.68,21.1,27.67,8.52C299.51,739.57,302.54,768.56,300.39,799.13Z" transform="translate(-138.9 -177.7)"/><path class="cls-5" d="M300.39,799.13c2.15-30.57-.88-59.56-25-82.13C224.11,508.68,377.55,333.18,541.47,319.25c61-5.19,117.27,21.94,177.26,20.14,18.17,13.05,23.58,43,53.52,40.43,50.65,58.92,33.72,128.11,17.91,190C757.83,696.44,676.3,780.24,550.39,826.89,458.47,861,378.07,859.91,300.39,799.13Z" transform="translate(-138.9 -177.7)"/><path class="cls-6" d="M718.73,339.39c-60,1.8-116.24-25.33-177.26-20.14C377.55,333.18,224.11,508.68,275.36,717c-14,12.58-21.11,9.31-27.65-8.52C171.25,500.12,349,259,571.23,274.05,625.6,277.73,680.58,292.86,718.73,339.39Z" transform="translate(-138.9 -177.7)"/></svg>